HIERARCHY
ROOT Pelvis
{
	OFFSET 0.000000 0.941512 0.000000
	CHANNELS 6 Xposition Yposition Zposition Zrotation Yrotation Xrotation 
	JOINT Pelvis_L_Hip
	{
		OFFSET 0.000000 0.000000 0.000000
		CHANNELS 3 Zrotation Yrotation Xrotation
		JOINT L_Hip
		{
			OFFSET 0.062321 -0.080322 -0.016990
			CHANNELS 3 Zrotation Yrotation Xrotation
			JOINT L_Knee
			{
				OFFSET 0.093051 -0.381305 -0.029784
				CHANNELS 3 Zrotation Yrotation Xrotation
				JOINT L_Ankle
				{
					OFFSET -0.010371 -0.431000 -0.033614
					CHANNELS 3 Zrotation Yrotation Xrotation
					End Site #name: L_Foot
					{
						OFFSET 0.069299 -0.038670 0.119418
					}
				}
			}
		}
	}
	JOINT Pelvis_R_Hip
	{
		OFFSET 0.000000 0.000000 0.000000
		CHANNELS 3 Zrotation Yrotation Xrotation
		JOINT R_Hip
		{
			OFFSET -0.055334 -0.094904 -0.002373
			CHANNELS 3 Zrotation Yrotation Xrotation
			JOINT R_Knee
			{
				OFFSET -0.064207 -0.384370 -0.019592
				CHANNELS 3 Zrotation Yrotation Xrotation
				JOINT R_Ankle
				{
					OFFSET 0.025418 -0.419734 -0.065953
					CHANNELS 3 Zrotation Yrotation Xrotation
					End Site #name: R_Foot
					{
						OFFSET -0.057233 -0.039888 0.132134
					}
				}
			}
		}
	}
	JOINT Pelvis_Spine1
	{
		OFFSET 0.000000 0.000000 0.000000
		CHANNELS 3 Zrotation Yrotation Xrotation
		JOINT Spine1
		{
			OFFSET -0.005562 0.124093 -0.043360
			CHANNELS 3 Zrotation Yrotation Xrotation
			JOINT Spine2
			{
				OFFSET 0.012244 0.139499 0.029894
				CHANNELS 3 Zrotation Yrotation Xrotation
				JOINT Spine3
				{
					OFFSET -0.002556 0.056561 0.009225
					CHANNELS 3 Zrotation Yrotation Xrotation
					JOINT Spine3_Neck
					{
						OFFSET 0.000000 0.000000 0.000000
						CHANNELS 3 Zrotation Yrotation Xrotation
						JOINT Neck
						{
							OFFSET -0.005205 0.217920 -0.024551
							CHANNELS 3 Zrotation Yrotation Xrotation
							End Site #name: Head
							{
								OFFSET 0.002365 0.091850 0.046637
							}
						}
					}
					JOINT Spine3_L_Collar
					{
						OFFSET 0.000000 0.000000 0.000000
						CHANNELS 3 Zrotation Yrotation Xrotation
						JOINT L_Collar
						{
							OFFSET 0.072225 0.116603 -0.009480
							CHANNELS 3 Zrotation Yrotation Xrotation
							JOINT L_Shoulder
							{
								OFFSET 0.115937 -0.058643 -0.021018
								CHANNELS 3 Zrotation Yrotation Xrotation
								JOINT L_Elbow
								{
									OFFSET 0.021994 -0.254722 -0.024492
									CHANNELS 3 Zrotation Yrotation Xrotation
									End Site #name: L_Wrist
									{
										OFFSET 0.048810 -0.240214 0.103329
									}
								}
							}
						}
					}
					JOINT Spine3_R_Collar
					{
						OFFSET 0.000000 0.000000 0.000000
						CHANNELS 3 Zrotation Yrotation Xrotation
						JOINT R_Collar
						{
							OFFSET -0.073372 0.120704 -0.024611
							CHANNELS 3 Zrotation Yrotation Xrotation
							JOINT R_Shoulder
							{
								OFFSET -0.108089 -0.054969 -0.020504
								CHANNELS 3 Zrotation Yrotation Xrotation
								JOINT R_Elbow
								{
									OFFSET -0.033684 -0.260739 0.009889
									CHANNELS 3 Zrotation Yrotation Xrotation
									End Site #name: R_Wrist
									{
										OFFSET -0.067980 -0.232763 0.118463
									}
								}
							}
						}
					}
				}
			}
		}
	}
}
MOTION
Frames: 8
Frame Time: 0.041667
0.000000 0.949991 0.000000 -2.947424 -3.507847 3.838126 0.000000 0.000000 0.000000 -2.030920 -0.868014 -3.950590 5.103986 -0.388736 -0.383733 -5.445847 -13.144440 2.252231 0.000000 0.000000 0.000000 3.257295 -0.070250 -0.653510 -2.830541 0.118257 -3.699689 0.729366 -0.052938 1.639291 0.000000 0.000000 0.000000 6.009230 -0.669145 -4.778112 -2.118851 0.092741 -4.044642 2.839065 2.676231 5.241362 0.000000 0.000000 0.000000 -11.870450 6.914884 6.838574 0.000000 0.000000 0.000000 27.019928 -1.755999 4.110198 -21.565727 3.464039 4.068353 -5.135348 -4.435964 -8.285017 0.000000 0.000000 0.000000 -33.283997 8.100204 -0.001542 22.061730 -4.628803 15.949682 -4.761060 2.200001 -17.847723 
0.000116 0.949896 -0.000075 -2.994464 -3.490088 3.874104 0.000000 0.000000 0.000000 -1.978287 -0.867093 -3.939180 5.100647 -0.381641 -0.482400 -5.478076 -13.199474 2.276147 0.000000 0.000000 0.000000 3.310432 -0.059873 -0.721644 -2.840666 0.125029 -3.634928 0.720754 -0.083396 1.641924 0.000000 0.000000 0.000000 6.077280 -0.667690 -4.876122 -2.209739 0.100242 -4.109298 2.939229 2.686925 5.410877 0.000000 0.000000 0.000000 -11.839566 6.880016 6.662334 0.000000 0.000000 0.000000 27.185270 -1.809165 4.103582 -21.857055 3.467818 3.910285 -5.079582 -4.455129 -8.462578 0.000000 0.000000 0.000000 -33.327578 8.142226 -0.044772 22.260777 -4.655702 15.941249 -4.779754 2.198010 -17.864166 
0.000247 0.949901 -0.000250 -2.999219 -3.430776 3.847760 0.000000 0.000000 0.000000 -1.974189 -0.865896 -3.933824 5.099501 -0.380706 -0.490876 -5.503703 -13.283002 2.275279 0.000000 0.000000 0.000000 3.320688 -0.065996 -0.691775 -2.849551 0.125968 -3.638812 0.717250 -0.129844 1.667840 0.000000 0.000000 0.000000 6.008723 -0.656730 -4.863561 -2.149610 0.095294 -4.064441 2.994859 2.680031 5.417911 0.000000 0.000000 0.000000 -11.787814 6.849265 6.678396 0.000000 0.000000 0.000000 27.222628 -1.883801 4.055819 -21.987591 3.453577 3.789461 -5.160917 -4.562949 -8.686977 0.000000 0.000000 0.000000 -33.294980 8.165526 -0.078848 22.380655 -4.661511 15.914848 -4.782070 2.192941 -17.868718 
0.000358 0.949917 -0.000543 -2.997506 -3.376146 3.813702 0.000000 0.000000 0.000000 -1.952860 -0.871024 -3.951356 5.064477 -0.380513 -0.451132 -5.525958 -13.341369 2.280897 0.000000 0.000000 0.000000 3.326833 -0.073308 -0.654458 -2.860785 0.125469 -3.662920 0.714645 -0.168618 1.690341 0.000000 0.000000 0.000000 5.946251 -0.651847 -4.814340 -2.097195 0.090567 -4.031798 3.023615 2.672664 5.422112 0.000000 0.000000 0.000000 -11.689809 6.799224 6.768661 0.000000 0.000000 0.000000 27.234677 -1.962265 3.999669 -22.042699 3.433633 3.692667 -5.260906 -4.676314 -8.904652 0.000000 0.000000 0.000000 -33.264393 8.202801 -0.127691 22.489054 -4.659306 15.870624 -4.751913 2.226791 -17.912200 
0.000408 0.949930 -0.000854 -2.992500 -3.369344 3.790868 0.000000 0.000000 0.000000 -1.950392 -0.871041 -3.950991 5.059167 -0.379328 -0.461885 -5.554021 -13.358933 2.315607 0.000000 0.000000 0.000000 3.321025 -0.073836 -0.649544 -2.867968 0.127587 -3.649287 0.721285 -0.179550 1.712713 0.000000 0.000000 0.000000 5.932850 -0.658906 -4.745288 -2.076116 0.089047 -4.012202 3.007507 2.677599 5.409583 0.000000 0.000000 0.000000 -11.568910 6.740601 6.898304 0.000000 0.000000 0.000000 27.236740 -1.977606 3.988623 -22.064324 3.417053 3.624377 -5.345160 -4.781763 -9.117636 0.000000 0.000000 0.000000 -33.218323 8.252136 -0.184777 22.529797 -4.643844 15.812974 -4.700284 2.284222 -17.980743 
0.000436 0.949957 -0.001179 -2.993742 -3.369519 3.783420 0.000000 0.000000 0.000000 -1.962775 -0.878795 -3.982151 5.085964 -0.382819 -0.440527 -5.578783 -13.369388 2.348703 0.000000 0.000000 0.000000 3.324396 -0.069803 -0.670673 -2.874854 0.130057 -3.629927 0.723889 -0.188692 1.724802 0.000000 0.000000 0.000000 5.948396 -0.673179 -4.663004 -2.077669 0.087726 -4.037441 2.967076 2.673227 5.402560 0.000000 0.000000 0.000000 -11.426304 6.669665 7.030980 0.000000 0.000000 0.000000 27.225621 -1.977385 3.987671 -22.068774 3.413482 3.611810 -5.394765 -4.862066 -9.315017 0.000000 0.000000 0.000000 -33.178889 8.264757 -0.206872 22.501678 -4.626317 15.771565 -4.582916 2.403358 -18.090164 
0.000441 0.949996 -0.001441 -2.993295 -3.378310 3.772328 0.000000 0.000000 0.000000 -1.962932 -0.890316 -4.026142 5.084842 -0.387819 -0.367629 -5.582143 -13.371400 2.353222 0.000000 0.000000 0.000000 3.331466 -0.069361 -0.674743 -2.888721 0.131016 -3.638735 0.733895 -0.186969 1.745382 0.000000 0.000000 0.000000 5.949354 -0.683169 -4.592624 -2.077182 0.087035 -4.048605 2.931821 2.664749 5.406597 0.000000 0.000000 0.000000 -11.265871 6.584015 7.122112 0.000000 0.000000 0.000000 27.221320 -1.979212 3.982010 -22.092477 3.413637 3.599612 -5.482428 -4.938255 -9.412514 0.000000 0.000000 0.000000 -33.155596 8.293865 -0.230470 22.476907 -4.614759 15.746466 -4.526993 2.473969 -18.206125 
0.000366 0.950009 -0.001600 -2.999499 -3.392316 3.763856 0.000000 0.000000 0.000000 -1.942801 -0.892710 -4.032055 5.075964 -0.387306 -0.365957 -5.599456 -13.363852 2.383638 0.000000 0.000000 0.000000 3.347166 -0.070818 -0.671505 -2.899178 0.131667 -3.645612 0.740038 -0.176591 1.751318 0.000000 0.000000 0.000000 5.941781 -0.691530 -4.523778 -2.066703 0.086316 -4.039329 2.862621 2.666433 5.388256 0.000000 0.000000 0.000000 -10.958539 6.402985 7.160309 0.000000 0.000000 0.000000 27.238933 -1.972465 3.991245 -22.100621 3.414006 3.598389 -5.580850 -5.004808 -9.461344 0.000000 0.000000 0.000000 -33.087545 8.315751 -0.265966 22.466825 -4.609183 15.734646 -4.509003 2.500780 -18.247748 
